PathFileType	3	(X/Y/Z)	D:\Jess\PFP\Labelled\PA12\20250811\SRRun01.trc
DataRate	CameraRate	NumFrames	NumMarkers	Units	OrigDataRate	OrigDataStartFrame	OrigNumFrames
250.0	250.0	4	37	mm	250.0	36250	2501
Frame#	Time	C7			T10			CLAV			LSHO			RSHO			LASIS			RASIS			LPSIS			RPSIS			LILCR			RILCR			LGTR			LTHI			LLTHI			LLEP			LMEP			LPSH			LLSH			LDSH			LLMAL			LMMAL			LTOE			L5TH			LHEE			RGTR			RTHI			RLTHI			RLEP			RMEP			RPSH			RLSH			RDSH			RLMAL			RMMAL			RTOE			R5TH			RHEE			
		X1	Y1	Z1	X2	Y2	Z2	X3	Y3	Z3	X4	Y4	Z4	X5	Y5	Z5	X6	Y6	Z6	X7	Y7	Z7	X8	Y8	Z8	X9	Y9	Z9	X10	Y10	Z10	X11	Y11	Z11	X12	Y12	Z12	X13	Y13	Z13	X14	Y14	Z14	X15	Y15	Z15	X16	Y16	Z16	X17	Y17	Z17	X18	Y18	Z18	X19	Y19	Z19	X20	Y20	Z20	X21	Y21	Z21	X22	Y22	Z22	X23	Y23	Z23	X24	Y24	Z24	X25	Y25	Z25	X26	Y26	Z26	X27	Y27	Z27	X28	Y28	Z28	X29	Y29	Z29	X30	Y30	Z30	X31	Y31	Z31	X32	Y32	Z32	X33	Y33	Z33	X34	Y34	Z34	X35	Y35	Z35	X36	Y36	Z36	X37	Y37	Z37	

1251	144.996	844.5565942091667	1509.847900097909	-309.1594897356106	751.189235512323	1229.31072239113	-344.4503285864603	995.3412602271828	1368.384381246557	-296.8331369420983	917.5261914184476	1507.350806199215	-458.0960346478375	881.424774637703	1466.808515906171	-149.7335026718389	953.3957655642505	937.140846441878	-428.5483531490893	941.0444419454384	961.5000990270273	-192.8622321256588	743.9267243591675	1018.095557942278	-348.1432165419632	737.8471633615085	1022.028772077179	-306.7591273175014	888.2580812647406	1030.429002511416	-505.0114950448753	813.0401924271697	1052.738334318921	-134.9290191133713	920.9415058244932	847.3615438966874	-502.5171340483532	1073.015749048142	740.7114339844912	-398.183434392439	1024.360977734017	620.2619227708643	-498.5369426334449	1036.19276494875	507.0176805277891	-475.4586319523896	nan	nan	nan	1018.351949699687	421.4138695785443	-420.2158861460457	864.3108935071806	434.9872166066108	-483.3522121466037	792.8901338786154	328.0832670922482	-420.1943381677891	670.1274071428847	331.5448792188791	-454.0857359512855	nan	nan	nan	694.0467814105681	169.9445330609899	-471.7016726694411	651.4807659789776	197.675528362663	-505.7549030313401	612.299762027305	378.7848271271723	-396.3284908693766	832.685987485817	859.35618543822	-114.776213159368	1016.14622485329	695.1252055388464	-208.3857687840505	896.885313883807	598.164036246652	-167.8231483296686	903.8650654792658	470.1507653270706	-197.3112502466793	nan	nan	nan	928.4943651759767	377.7051333636035	-276.6611509023962	814.7593112027324	296.6020185960226	-220.4764795573136	803.6716036649686	184.3853771096718	-312.3008033153498	714.8240937690565	109.5089754724562	-284.5758837978311	nan	nan	nan	854.8606307335601	60.65837835979443	-290.4062623302165	814.121858342445	41.22752452502291	-244.2258901758084	625.5137249105692	88.37820220021385	-346.3721049062	
1252	145	844.1160116492773	1510.919096176083	-308.1528670546264	750.9194545073279	1230.29444895402	-343.4321020784228	995.0621912193137	1369.833337434945	-297.7841103411237	915.6185025350903	1508.859743083422	-458.0150174670611	883.0728379147054	1468.077134653381	-149.4108454618899	953.0586162737598	939.1468842568878	-428.8589306563871	940.9385894243435	962.2820610076714	-193.044612934197	743.5449010672244	1019.436179820853	-347.7381555177001	737.4804352555644	1023.391233613871	-306.3180455037261	886.8370094293181	1032.026903773692	-505.3673710140458	813.5746592628525	1053.651511999056	-134.426367948246	921.2625106903512	849.7640637327431	-502.8708257611905	1074.770282644928	745.4448753283156	-398.5782003173978	1027.987037036193	623.9445143607672	-498.165587384369	1041.641665831665	510.8960771651957	-474.883707577514	nan	nan	nan	1025.635064136001	424.7121845738058	-419.7228768680654	871.3567600528573	434.577205881979	-483.0052134201012	802.5348584538661	325.7261908094228	-420.0647738964897	679.7481680763754	325.9729369046961	-454.1064218129666	nan	nan	nan	708.788434885354	165.4100309437268	-472.0556799967523	665.3980340738035	191.7625607874825	-506.0926765613846	620.3024150435996	371.2768081122155	-396.3225114838939	830.6985168746403	859.7280720581749	-114.9577425693088	1011.699092588312	692.9575849515321	-208.2527396453445	890.5698357752286	598.1402013704086	-168.4483728324902	895.8720199393266	469.9579972400699	-197.6908566340715	nan	nan	nan	919.5507082880591	377.1447186255589	-277.3148044373859	805.4475697646974	296.8029690601105	-220.8247423200069	793.540328227562	184.6110451820236	-312.3645710896866	704.2649489620698	110.1523102412004	-284.6584711517436	nan	nan	nan	843.948195451998	60.47897651963259	-290.5333615034135	803.1085769470626	41.3236452583665	-244.3477543891947	614.7552120987967	89.30113033954314	-346.3707415181432	
1253	145.004	843.7291349492053	1512.144082467585	-307.1033789967399	750.7009109211338	1231.425827700696	-342.3655907197048	994.8136703737158	1371.477147976885	-298.7879802856414	913.6488836140788	1510.55658979781	-457.910393343445	884.8194249109147	1469.564552727168	-149.1372363772153	952.8264921727381	941.3289055039121	-429.090511698203	940.8820088228928	963.2254713745602	-193.1724440943059	743.2517035698934	1020.955866044965	-347.4272427758986	737.1824564342475	1024.925883710116	-305.9727276130342	885.6161200335067	1033.773986929768	-505.6381271558567	814.1605458915709	1054.669766620739	-133.9413090242683	921.7274408821545	852.3814896895726	-503.2448952787327	1076.402535111172	750.269545872344	-398.9527849796415	1031.322797621067	627.6922828159294	-497.7436318138256	1046.738682284364	514.9041742352676	-474.2835932223617	nan	nan	nan	1032.693352429546	428.1404832750785	-419.2412067873479	878.2233194664722	434.129824804768	-482.5902868486676	812.2286344580887	323.300162490348	-419.8774932947017	689.479470635141	320.1768483369142	-454.018441098352	nan	nan	nan	723.7485407569549	160.8315175955455	-472.2875851286898	679.525737159363	185.7264346493215	-506.2822140942101	628.4684350361026	363.4494698069069	-396.1881416546395	828.6538404585071	860.3281470337807	-115.2077737634345	1007.184008299177	691.1108131114565	-208.3199165097464	884.3088299004426	598.3823385468427	-169.0651328058237	887.8669895412067	470.0789985465911	-198.0803043153199	nan	nan	nan	910.5682304754012	376.8544477216287	-277.9326424101864	796.0480749717278	297.2934538116446	-221.1514831226091	783.4363016189984	185.0026226328294	-312.3903985319401	693.7498236121403	110.9452147929644	-284.7173848471425	nan	nan	nan	833.0511159070635	60.31398974029781	-290.6572758906293	792.1093095911513	41.43888676843554	-244.4762954581892	604.0552511036738	90.40768054264794	-346.3347679424896	
1254	145.008	843.3936738723453	1513.519651456656	-306.024786834902	750.5329696992829	1232.701722501556	-341.2451044846005	994.5988265576862	1373.309457593375	-299.8402343527769	911.6252118947447	1512.431113990183	-457.7792164833394	886.6632496917741	1471.268689713034	-148.9165515510188	952.694250466007	943.6622258754995	-429.2414375185005	940.8693968918476	964.3131947157134	-193.2442246771691	743.0492067341535	1022.650416139121	-347.2108880675067	736.9565962969117	1026.626304292361	-305.7241107913804	884.604224695027	1035.676357686802	-505.8170938671036	814.7889764964252	1055.780245869855	-133.4846260415826	922.3330356582757	855.2115528204597	-503.6292919865074	1077.90915637648	755.1579975853022	-399.2841819889241	1034.37909691604	631.4806612326573	-497.2794069704635	1051.48139238539	519.0060022978167	-473.6638174156787	nan	nan	nan	1039.517186312069	431.675542902268	-418.7715772312704	884.917049315181	433.6296925949608	-482.1124326497069	821.9751477099196	320.8098393309434	-419.6361961997336	699.3352878919995	314.1690360752491	-453.8254133246909	nan	nan	nan	738.9234785098458	156.2319482187937	-472.4019624520233	693.8682401313699	179.5900548402166	-506.3291695985492	636.820070117092	355.3203510851837	-395.9298496029086	826.5679875350106	861.1549398205186	-115.5284334669696	1002.619067515028	689.5717542459857	-208.5924339708638	878.1117293163309	598.8895589980118	-169.6696918808002	879.83789697161	470.5076540504089	-198.4712899376105	nan	nan	nan	901.5575074869888	376.8287781577811	-278.4962516206867	786.5681825985261	298.0723412411811	-221.4502198744656	773.3696428809764	185.5636937024508	-312.3721103833242	683.2874521265737	111.8957204910595	-284.7460445801753	nan	nan	nan	822.1708142627473	60.16080965198559	-290.7750637158517	781.1248697406329	41.56930383193435	-244.6090470602899	593.4242491703014	91.71600340965436	-346.2600090729342	
